solid ULN2003-dual
facet normal -0.3826834323650872 -0.9238795325112878 -0.0
  outer loop
    vertex 43.75000000000001 -24.2816364905389 0.9999999999999999
    vertex 43.147047612756296 -24.031885434277328 0.0
    vertex 43.75000000000001 -24.2816364905389 0.0
  endloop
endfacet
facet normal -0.3826834323650872 -0.9238795325112878 -0.0
  outer loop
    vertex 43.147047612756296 -24.031885434277328 0.0
    vertex 43.75000000000001 -24.2816364905389 0.9999999999999999
    vertex 43.147047612756296 -24.031885434277328 0.9999999999999999
  endloop
endfacet
facet normal -0.99144486137381 0.13052619222005557 0.0
  outer loop
    vertex 45.0 -26.4467 0.9999999999999999
    vertex 44.91481456572267 -27.0937476127563 0.0
    vertex 44.91481456572267 -27.0937476127563 0.9999999999999999
  endloop
endfacet
facet normal -0.99144486137381 0.13052619222005557 0.0
  outer loop
    vertex 44.91481456572267 -27.0937476127563 0.0
    vertex 45.0 -26.4467 0.9999999999999999
    vertex 45.0 -26.4467 0.0
  endloop
endfacet
facet normal 0.3826834323650872 0.9238795325112878 0.0
  outer loop
    vertex 41.25 -28.611763509461092 0.9999999999999999
    vertex 41.8529523872437 -28.861514565722672 0.0
    vertex 41.25 -28.611763509461092 0.0
  endloop
endfacet
facet normal 0.3826834323650872 0.9238795325112878 0.0
  outer loop
    vertex 41.8529523872437 -28.861514565722672 0.0
    vertex 41.25 -28.611763509461092 0.9999999999999999
    vertex 41.8529523872437 -28.861514565722672 0.9999999999999999
  endloop
endfacet
facet normal 0.6087614290087223 0.793353340291234 0.0
  outer loop
    vertex 40.73223304703363 -28.214466952966365 0.9999999999999999
    vertex 41.25 -28.611763509461092 0.0
    vertex 40.73223304703363 -28.214466952966365 0.0
  endloop
endfacet
facet normal 0.6087614290087223 0.793353340291234 0.0
  outer loop
    vertex 41.25 -28.611763509461092 0.0
    vertex 40.73223304703363 -28.214466952966365 0.9999999999999999
    vertex 41.25 -28.611763509461092 0.9999999999999999
  endloop
endfacet
facet normal 0.3826834323650902 -0.9238795325112866 0.0
  outer loop
    vertex 41.8529523872437 -24.031885434277328 0.9999999999999999
    vertex 41.25 -24.2816364905389 0.0
    vertex 41.8529523872437 -24.031885434277328 0.0
  endloop
endfacet
facet normal 0.3826834323650902 -0.9238795325112866 0.0
  outer loop
    vertex 41.25 -24.2816364905389 0.0
    vertex 41.8529523872437 -24.031885434277328 0.9999999999999999
    vertex 41.25 -24.2816364905389 0.9999999999999999
  endloop
endfacet
facet normal -0.3826834323650902 0.9238795325112866 0.0
  outer loop
    vertex 43.147047612756296 -28.861514565722672 0.9999999999999999
    vertex 43.74999999999999 -28.611763509461092 0.0
    vertex 43.147047612756296 -28.861514565722672 0.0
  endloop
endfacet
facet normal -0.3826834323650902 0.9238795325112866 0.0
  outer loop
    vertex 43.74999999999999 -28.611763509461092 0.0
    vertex 43.147047612756296 -28.861514565722672 0.9999999999999999
    vertex 43.74999999999999 -28.611763509461092 0.9999999999999999
  endloop
endfacet
facet normal -0.13052619222005188 0.9914448613738104 0.0
  outer loop
    vertex 42.50000000000001 -28.9467 0.9999999999999999
    vertex 43.147047612756296 -28.861514565722672 0.0
    vertex 42.50000000000001 -28.9467 0.0
  endloop
endfacet
facet normal -0.13052619222005188 0.9914448613738104 0.0
  outer loop
    vertex 43.147047612756296 -28.861514565722672 0.0
    vertex 42.50000000000001 -28.9467 0.9999999999999999
    vertex 43.147047612756296 -28.861514565722672 0.9999999999999999
  endloop
endfacet
facet normal 0.9914448613738109 0.13052619222004763 0.0
  outer loop
    vertex 40.0 -26.4467 0.0
    vertex 40.08518543427732 -27.0937476127563 0.9999999999999999
    vertex 40.08518543427732 -27.0937476127563 0.0
  endloop
endfacet
facet normal 0.9914448613738109 0.13052619222004763 0.0
  outer loop
    vertex 40.08518543427732 -27.0937476127563 0.9999999999999999
    vertex 40.0 -26.4467 0.0
    vertex 40.0 -26.4467 0.9999999999999999
  endloop
endfacet
facet normal 0.6087614290087195 -0.7933533402912359 0.0
  outer loop
    vertex 41.25 -24.2816364905389 0.9999999999999999
    vertex 40.73223304703363 -24.678933047033627 0.0
    vertex 41.25 -24.2816364905389 0.0
  endloop
endfacet
facet normal 0.6087614290087195 -0.7933533402912359 0.0
  outer loop
    vertex 40.73223304703363 -24.678933047033627 0.0
    vertex 41.25 -24.2816364905389 0.9999999999999999
    vertex 40.73223304703363 -24.678933047033627 0.9999999999999999
  endloop
endfacet
facet normal 0.7933533402912359 -0.6087614290087195 0.0
  outer loop
    vertex 40.73223304703363 -24.678933047033627 0.0
    vertex 40.3349364905389 -25.196699999999996 0.9999999999999999
    vertex 40.3349364905389 -25.196699999999996 0.0
  endloop
endfacet
facet normal 0.7933533402912359 -0.6087614290087195 0.0
  outer loop
    vertex 40.3349364905389 -25.196699999999996 0.9999999999999999
    vertex 40.73223304703363 -24.678933047033627 0.0
    vertex 40.73223304703363 -24.678933047033627 0.9999999999999999
  endloop
endfacet
facet normal 0.9238795325112842 0.3826834323650961 0.0
  outer loop
    vertex 40.08518543427732 -27.0937476127563 0.0
    vertex 40.3349364905389 -27.696699999999996 0.9999999999999999
    vertex 40.3349364905389 -27.696699999999996 0.0
  endloop
endfacet
facet normal 0.9238795325112842 0.3826834323650961 0.0
  outer loop
    vertex 40.3349364905389 -27.696699999999996 0.9999999999999999
    vertex 40.08518543427732 -27.0937476127563 0.0
    vertex 40.08518543427732 -27.0937476127563 0.9999999999999999
  endloop
endfacet
facet normal -0.9238795325112842 -0.3826834323650961 -0.0
  outer loop
    vertex 44.66506350946109 -25.196699999999996 0.9999999999999999
    vertex 44.91481456572267 -25.799652387243697 0.0
    vertex 44.91481456572267 -25.799652387243697 0.9999999999999999
  endloop
endfacet
facet normal -0.9238795325112842 -0.3826834323650961 -0.0
  outer loop
    vertex 44.91481456572267 -25.799652387243697 0.0
    vertex 44.66506350946109 -25.196699999999996 0.9999999999999999
    vertex 44.66506350946109 -25.196699999999996 0.0
  endloop
endfacet
facet normal -0.6087614290087238 -0.793353340291233 -0.0
  outer loop
    vertex 44.26776695296637 -24.678933047033627 0.9999999999999999
    vertex 43.75000000000001 -24.2816364905389 0.0
    vertex 44.26776695296637 -24.678933047033627 0.0
  endloop
endfacet
facet normal -0.6087614290087238 -0.793353340291233 -0.0
  outer loop
    vertex 43.75000000000001 -24.2816364905389 0.0
    vertex 44.26776695296637 -24.678933047033627 0.9999999999999999
    vertex 43.75000000000001 -24.2816364905389 0.9999999999999999
  endloop
endfacet
facet normal 1.0 0.0 0.0
  outer loop
    vertex 50.00000000000001 -18.9467 0.0
    vertex 50.00000000000001 -33.9467 0.9999999999999999
    vertex 50.00000000000001 -33.9467 0.0
  endloop
endfacet
facet normal 1.0 0.0 0.0
  outer loop
    vertex 50.00000000000001 -33.9467 0.9999999999999999
    vertex 50.00000000000001 -18.9467 0.0
    vertex 50.00000000000001 -18.9467 0.9999999999999999
  endloop
endfacet
facet normal -0.0 1.0 -0.0
  outer loop
    vertex 37.99999999999999 -18.9467 7.402412016688231e-15
    vertex 50.00000000000001 -18.9467 0.9999999999999999
    vertex 50.00000000000001 -18.9467 0.0
  endloop
endfacet
facet normal -0.0 1.0 -0.0
  outer loop
    vertex 50.00000000000001 -18.9467 0.9999999999999999
    vertex 37.99999999999999 -18.9467 7.402412016688231e-15
    vertex 37.99999999999999 -18.9467 0.9999999999999999
  endloop
endfacet
facet normal -0.6087614290087223 -0.793353340291234 -0.0
  outer loop
    vertex -40.73223304703363 -24.67893304703363 0.9999999999999999
    vertex -41.25 -24.2816364905389 0.0
    vertex -40.73223304703363 -24.67893304703363 0.0
  endloop
endfacet
facet normal -0.6087614290087223 -0.793353340291234 -0.0
  outer loop
    vertex -41.25 -24.2816364905389 0.0
    vertex -40.73223304703363 -24.67893304703363 0.9999999999999999
    vertex -41.25 -24.2816364905389 0.9999999999999999
  endloop
endfacet
facet normal -0.0 -0.0 1.0
  outer loop
    vertex 37.99999999999999 -33.94670000000001 0.9999999999999999
    vertex 40.08518543427732 -27.0937476127563 0.9999999999999999
    vertex 37.99999999999999 -18.9467 0.9999999999999999
  endloop
endfacet
facet normal -0.0 -0.0 1.0
  outer loop
    vertex 40.08518543427732 -27.0937476127563 0.9999999999999999
    vertex 37.99999999999999 -33.94670000000001 0.9999999999999999
    vertex 40.3349364905389 -27.696699999999996 0.9999999999999999
  endloop
endfacet
facet normal -0.0 -0.0 1.0
  outer loop
    vertex 40.3349364905389 -27.696699999999996 0.9999999999999999
    vertex 37.99999999999999 -33.94670000000001 0.9999999999999999
    vertex 40.73223304703363 -28.214466952966365 0.9999999999999999
  endloop
endfacet
facet normal -0.0 -0.0 1.0
  outer loop
    vertex 40.73223304703363 -28.214466952966365 0.9999999999999999
    vertex 37.99999999999999 -33.94670000000001 0.9999999999999999
    vertex 41.25 -28.611763509461092 0.9999999999999999
  endloop
endfacet
facet normal -0.0 -0.0 1.0
  outer loop
    vertex 41.25 -28.611763509461092 0.9999999999999999
    vertex 37.99999999999999 -33.94670000000001 0.9999999999999999
    vertex 50.00000000000001 -33.9467 0.9999999999999999
  endloop
endfacet
facet normal -0.0 -0.0 1.0
  outer loop
    vertex 37.99999999999999 -18.9467 0.9999999999999999
    vertex 40.08518543427732 -27.0937476127563 0.9999999999999999
    vertex 40.0 -26.4467 0.9999999999999999
  endloop
endfacet
facet normal -0.0 -0.0 1.0
  outer loop
    vertex 41.25 -28.611763509461092 0.9999999999999999
    vertex 50.00000000000001 -33.9467 0.9999999999999999
    vertex 41.8529523872437 -28.861514565722672 0.9999999999999999
  endloop
endfacet
facet normal -0.0 -0.0 1.0
  outer loop
    vertex 41.8529523872437 -28.861514565722672 0.9999999999999999
    vertex 50.00000000000001 -33.9467 0.9999999999999999
    vertex 42.50000000000001 -28.9467 0.9999999999999999
  endloop
endfacet
facet normal -0.0 -0.0 1.0
  outer loop
    vertex 42.50000000000001 -28.9467 0.9999999999999999
    vertex 50.00000000000001 -33.9467 0.9999999999999999
    vertex 43.147047612756296 -28.861514565722672 0.9999999999999999
  endloop
endfacet
facet normal -0.0 -0.0 1.0
  outer loop
    vertex 43.147047612756296 -28.861514565722672 0.9999999999999999
    vertex 50.00000000000001 -33.9467 0.9999999999999999
    vertex 43.74999999999999 -28.611763509461092 0.9999999999999999
  endloop
endfacet
facet normal -0.0 -0.0 1.0
  outer loop
    vertex 43.74999999999999 -28.611763509461092 0.9999999999999999
    vertex 50.00000000000001 -33.9467 0.9999999999999999
    vertex 44.26776695296637 -28.214466952966372 0.9999999999999999
  endloop
endfacet
facet normal -0.0 -0.0 1.0
  outer loop
    vertex 44.26776695296637 -28.214466952966372 0.9999999999999999
    vertex 50.00000000000001 -33.9467 0.9999999999999999
    vertex 44.66506350946109 -27.696699999999996 0.9999999999999999
  endloop
endfacet
facet normal -0.0 -0.0 1.0
  outer loop
    vertex 44.66506350946109 -27.696699999999996 0.9999999999999999
    vertex 50.00000000000001 -33.9467 0.9999999999999999
    vertex 44.91481456572267 -27.0937476127563 0.9999999999999999
  endloop
endfacet
facet normal -0.0 -0.0 1.0
  outer loop
    vertex 44.91481456572267 -27.0937476127563 0.9999999999999999
    vertex 50.00000000000001 -33.9467 0.9999999999999999
    vertex 45.0 -26.4467 0.9999999999999999
  endloop
endfacet
facet normal -0.0 -0.0 1.0
  outer loop
    vertex 37.99999999999999 -18.9467 0.9999999999999999
    vertex 41.25 -24.2816364905389 0.9999999999999999
    vertex 50.00000000000001 -18.9467 0.9999999999999999
  endloop
endfacet
facet normal -0.0 -0.0 1.0
  outer loop
    vertex 41.25 -24.2816364905389 0.9999999999999999
    vertex 37.99999999999999 -18.9467 0.9999999999999999
    vertex 40.73223304703363 -24.678933047033627 0.9999999999999999
  endloop
endfacet
facet normal -0.0 -0.0 1.0
  outer loop
    vertex 40.73223304703363 -24.678933047033627 0.9999999999999999
    vertex 37.99999999999999 -18.9467 0.9999999999999999
    vertex 40.3349364905389 -25.196699999999996 0.9999999999999999
  endloop
endfacet
facet normal -0.0 -0.0 1.0
  outer loop
    vertex 40.3349364905389 -25.196699999999996 0.9999999999999999
    vertex 37.99999999999999 -18.9467 0.9999999999999999
    vertex 40.08518543427732 -25.799652387243697 0.9999999999999999
  endloop
endfacet
facet normal -0.0 -0.0 1.0
  outer loop
    vertex 40.08518543427732 -25.799652387243697 0.9999999999999999
    vertex 37.99999999999999 -18.9467 0.9999999999999999
    vertex 40.0 -26.4467 0.9999999999999999
  endloop
endfacet
facet normal -0.0 -0.0 1.0
  outer loop
    vertex 50.00000000000001 -18.9467 0.9999999999999999
    vertex 41.25 -24.2816364905389 0.9999999999999999
    vertex 41.8529523872437 -24.031885434277328 0.9999999999999999
  endloop
endfacet
facet normal -0.0 -0.0 1.0
  outer loop
    vertex 50.00000000000001 -18.9467 0.9999999999999999
    vertex 41.8529523872437 -24.031885434277328 0.9999999999999999
    vertex 42.50000000000001 -23.946699999999996 0.9999999999999999
  endloop
endfacet
facet normal -0.0 -0.0 1.0
  outer loop
    vertex 50.00000000000001 -18.9467 0.9999999999999999
    vertex 42.50000000000001 -23.946699999999996 0.9999999999999999
    vertex 43.147047612756296 -24.031885434277328 0.9999999999999999
  endloop
endfacet
facet normal -0.0 -0.0 1.0
  outer loop
    vertex 50.00000000000001 -18.9467 0.9999999999999999
    vertex 43.147047612756296 -24.031885434277328 0.9999999999999999
    vertex 43.75000000000001 -24.2816364905389 0.9999999999999999
  endloop
endfacet
facet normal -0.0 -0.0 1.0
  outer loop
    vertex 50.00000000000001 -18.9467 0.9999999999999999
    vertex 43.75000000000001 -24.2816364905389 0.9999999999999999
    vertex 44.26776695296637 -24.678933047033627 0.9999999999999999
  endloop
endfacet
facet normal -0.0 -0.0 1.0
  outer loop
    vertex 50.00000000000001 -18.9467 0.9999999999999999
    vertex 44.26776695296637 -24.678933047033627 0.9999999999999999
    vertex 44.66506350946109 -25.196699999999996 0.9999999999999999
  endloop
endfacet
facet normal -0.0 -0.0 1.0
  outer loop
    vertex 50.00000000000001 -18.9467 0.9999999999999999
    vertex 44.66506350946109 -25.196699999999996 0.9999999999999999
    vertex 44.91481456572267 -25.799652387243697 0.9999999999999999
  endloop
endfacet
facet normal -0.0 -0.0 1.0
  outer loop
    vertex 50.00000000000001 -18.9467 0.9999999999999999
    vertex 44.91481456572267 -25.799652387243697 0.9999999999999999
    vertex 45.0 -26.4467 0.9999999999999999
  endloop
endfacet
facet normal -0.0 -0.0 1.0
  outer loop
    vertex 50.00000000000001 -18.9467 0.9999999999999999
    vertex 45.0 -26.4467 0.9999999999999999
    vertex 50.00000000000001 -33.9467 0.9999999999999999
  endloop
endfacet
facet normal 0.99144486137381 -0.13052619222005557 0.0
  outer loop
    vertex -44.91481456572267 -25.799652387243697 0.0
    vertex -45.0 -26.4467 0.9999999999999999
    vertex -45.0 -26.4467 0.0
  endloop
endfacet
facet normal 0.99144486137381 -0.13052619222005557 0.0
  outer loop
    vertex -45.0 -26.4467 0.9999999999999999
    vertex -44.91481456572267 -25.799652387243697 0.0
    vertex -44.91481456572267 -25.799652387243697 0.9999999999999999
  endloop
endfacet
facet normal -0.9238795325112842 -0.3826834323650961 -0.0
  outer loop
    vertex -40.33493649053891 -25.196699999999996 0.9999999999999999
    vertex -40.08518543427733 -25.799652387243697 0.0
    vertex -40.08518543427733 -25.799652387243697 0.9999999999999999
  endloop
endfacet
facet normal -0.9238795325112842 -0.3826834323650961 -0.0
  outer loop
    vertex -40.08518543427733 -25.799652387243697 0.0
    vertex -40.33493649053891 -25.196699999999996 0.9999999999999999
    vertex -40.33493649053891 -25.196699999999996 0.0
  endloop
endfacet
facet normal -4.699944137579828e-16 1.0 -9.733174876213583e-32
  outer loop
    vertex -50.00000000000001 -18.9467 0.9999999999999999
    vertex -38.00000000000001 -18.946699999999996 7.402412016688231e-15
    vertex -50.00000000000001 -18.9467 0.0
  endloop
endfacet
facet normal -4.699944137579828e-16 1.0 -9.733174876213583e-32
  outer loop
    vertex -38.00000000000001 -18.946699999999996 7.402412016688231e-15
    vertex -50.00000000000001 -18.9467 0.9999999999999999
    vertex -38.00000000000001 -18.946699999999996 0.9999999999999999
  endloop
endfacet
facet normal -0.7933533402912386 -0.6087614290087163 -0.0
  outer loop
    vertex -40.73223304703363 -24.67893304703363 0.9999999999999999
    vertex -40.33493649053891 -25.196699999999996 0.0
    vertex -40.33493649053891 -25.196699999999996 0.9999999999999999
  endloop
endfacet
facet normal -0.7933533402912386 -0.6087614290087163 -0.0
  outer loop
    vertex -40.33493649053891 -25.196699999999996 0.0
    vertex -40.73223304703363 -24.67893304703363 0.9999999999999999
    vertex -40.73223304703363 -24.67893304703363 0.0
  endloop
endfacet
facet normal 0.3826834323650902 -0.9238795325112866 0.0
  outer loop
    vertex -43.1470476127563 -24.031885434277328 0.9999999999999999
    vertex -43.75 -24.2816364905389 0.0
    vertex -43.1470476127563 -24.031885434277328 0.0
  endloop
endfacet
facet normal 0.3826834323650902 -0.9238795325112866 0.0
  outer loop
    vertex -43.75 -24.2816364905389 0.0
    vertex -43.1470476127563 -24.031885434277328 0.9999999999999999
    vertex -43.75 -24.2816364905389 0.9999999999999999
  endloop
endfacet
facet normal -0.9238795325112836 0.3826834323650976 0.0
  outer loop
    vertex -40.08518543427733 -27.0937476127563 0.9999999999999999
    vertex -40.33493649053891 -27.696699999999996 0.0
    vertex -40.33493649053891 -27.696699999999996 0.9999999999999999
  endloop
endfacet
facet normal -0.9238795325112836 0.3826834323650976 0.0
  outer loop
    vertex -40.33493649053891 -27.696699999999996 0.0
    vertex -40.08518543427733 -27.0937476127563 0.9999999999999999
    vertex -40.08518543427733 -27.0937476127563 0.0
  endloop
endfacet
facet normal 0.7933533402912359 0.6087614290087195 0.0
  outer loop
    vertex -44.6650635094611 -27.696699999999996 0.0
    vertex -44.26776695296637 -28.214466952966372 0.9999999999999999
    vertex -44.26776695296637 -28.214466952966372 0.0
  endloop
endfacet
facet normal 0.7933533402912359 0.6087614290087195 0.0
  outer loop
    vertex -44.26776695296637 -28.214466952966372 0.9999999999999999
    vertex -44.6650635094611 -27.696699999999996 0.0
    vertex -44.6650635094611 -27.696699999999996 0.9999999999999999
  endloop
endfacet
facet normal -1.0 0.0 0.0
  outer loop
    vertex -50.00000000000001 -18.9467 0.9999999999999999
    vertex -50.00000000000001 -33.9467 0.0
    vertex -50.00000000000001 -33.9467 0.9999999999999999
  endloop
endfacet
facet normal -1.0 0.0 0.0
  outer loop
    vertex -50.00000000000001 -33.9467 0.0
    vertex -50.00000000000001 -18.9467 0.9999999999999999
    vertex -50.00000000000001 -18.9467 0.0
  endloop
endfacet
facet normal 0.9238795325112866 -0.3826834323650902 0.0
  outer loop
    vertex -44.6650635094611 -25.196699999999996 0.0
    vertex -44.91481456572267 -25.799652387243697 0.9999999999999999
    vertex -44.91481456572267 -25.799652387243697 0.0
  endloop
endfacet
facet normal 0.9238795325112866 -0.3826834323650902 0.0
  outer loop
    vertex -44.91481456572267 -25.799652387243697 0.9999999999999999
    vertex -44.6650635094611 -25.196699999999996 0.0
    vertex -44.6650635094611 -25.196699999999996 0.9999999999999999
  endloop
endfacet
facet normal -0.9914448613738109 0.13052619222004705 0.0
  outer loop
    vertex -40.0 -26.4467 0.9999999999999999
    vertex -40.08518543427733 -27.0937476127563 0.0
    vertex -40.08518543427733 -27.0937476127563 0.9999999999999999
  endloop
endfacet
facet normal -0.9914448613738109 0.13052619222004705 0.0
  outer loop
    vertex -40.08518543427733 -27.0937476127563 0.0
    vertex -40.0 -26.4467 0.9999999999999999
    vertex -40.0 -26.4467 0.0
  endloop
endfacet
facet normal 0.9238795325112842 0.3826834323650961 0.0
  outer loop
    vertex -44.91481456572267 -27.0937476127563 0.0
    vertex -44.6650635094611 -27.696699999999996 0.9999999999999999
    vertex -44.6650635094611 -27.696699999999996 0.0
  endloop
endfacet
facet normal 0.9238795325112842 0.3826834323650961 0.0
  outer loop
    vertex -44.6650635094611 -27.696699999999996 0.9999999999999999
    vertex -44.91481456572267 -27.0937476127563 0.0
    vertex -44.91481456572267 -27.0937476127563 0.9999999999999999
  endloop
endfacet
facet normal 0.6087614290087238 0.793353340291233 0.0
  outer loop
    vertex -44.26776695296637 -28.214466952966372 0.9999999999999999
    vertex -43.75000000000001 -28.611763509461092 0.0
    vertex -44.26776695296637 -28.214466952966372 0.0
  endloop
endfacet
facet normal 0.6087614290087238 0.793353340291233 0.0
  outer loop
    vertex -43.75000000000001 -28.611763509461092 0.0
    vertex -44.26776695296637 -28.214466952966372 0.9999999999999999
    vertex -43.75000000000001 -28.611763509461092 0.9999999999999999
  endloop
endfacet
facet normal 0.3826834323650872 0.9238795325112878 0.0
  outer loop
    vertex -43.75000000000001 -28.611763509461092 0.9999999999999999
    vertex -43.1470476127563 -28.861514565722672 0.0
    vertex -43.75000000000001 -28.611763509461092 0.0
  endloop
endfacet
facet normal 0.3826834323650872 0.9238795325112878 0.0
  outer loop
    vertex -43.1470476127563 -28.861514565722672 0.0
    vertex -43.75000000000001 -28.611763509461092 0.9999999999999999
    vertex -43.1470476127563 -28.861514565722672 0.9999999999999999
  endloop
endfacet
facet normal 0.6087614290087195 -0.7933533402912359 0.0
  outer loop
    vertex -43.75 -24.2816364905389 0.9999999999999999
    vertex -44.26776695296637 -24.678933047033627 0.0
    vertex -43.75 -24.2816364905389 0.0
  endloop
endfacet
facet normal 0.6087614290087195 -0.7933533402912359 0.0
  outer loop
    vertex -44.26776695296637 -24.678933047033627 0.0
    vertex -43.75 -24.2816364905389 0.9999999999999999
    vertex -44.26776695296637 -24.678933047033627 0.9999999999999999
  endloop
endfacet
facet normal 0.13052619222005188 -0.9914448613738104 0.0
  outer loop
    vertex -42.5 -23.946699999999996 0.9999999999999999
    vertex -43.1470476127563 -24.031885434277328 0.0
    vertex -42.5 -23.946699999999996 0.0
  endloop
endfacet
facet normal 0.13052619222005188 -0.9914448613738104 0.0
  outer loop
    vertex -43.1470476127563 -24.031885434277328 0.0
    vertex -42.5 -23.946699999999996 0.9999999999999999
    vertex -43.1470476127563 -24.031885434277328 0.9999999999999999
  endloop
endfacet
facet normal 0.9914448613738109 0.13052619222004763 0.0
  outer loop
    vertex -45.0 -26.4467 0.0
    vertex -44.91481456572267 -27.0937476127563 0.9999999999999999
    vertex -44.91481456572267 -27.0937476127563 0.0
  endloop
endfacet
facet normal 0.9914448613738109 0.13052619222004763 0.0
  outer loop
    vertex -44.91481456572267 -27.0937476127563 0.9999999999999999
    vertex -45.0 -26.4467 0.0
    vertex -45.0 -26.4467 0.9999999999999999
  endloop
endfacet
facet normal -0.13052619222005188 0.9914448613738104 0.0
  outer loop
    vertex -42.5 -28.9467 0.9999999999999999
    vertex -41.8529523872437 -28.861514565722672 0.0
    vertex -42.5 -28.9467 0.0
  endloop
endfacet
facet normal -0.13052619222005188 0.9914448613738104 0.0
  outer loop
    vertex -41.8529523872437 -28.861514565722672 0.0
    vertex -42.5 -28.9467 0.9999999999999999
    vertex -41.8529523872437 -28.861514565722672 0.9999999999999999
  endloop
endfacet
facet normal -0.6087614290087195 0.7933533402912359 0.0
  outer loop
    vertex -41.25 -28.611763509461092 0.9999999999999999
    vertex -40.73223304703363 -28.214466952966372 0.0
    vertex -41.25 -28.611763509461092 0.0
  endloop
endfacet
facet normal -0.6087614290087195 0.7933533402912359 0.0
  outer loop
    vertex -40.73223304703363 -28.214466952966372 0.0
    vertex -41.25 -28.611763509461092 0.9999999999999999
    vertex -40.73223304703363 -28.214466952966372 0.9999999999999999
  endloop
endfacet
facet normal -0.3826834323650902 0.9238795325112866 0.0
  outer loop
    vertex -41.8529523872437 -28.861514565722672 0.9999999999999999
    vertex -41.25 -28.611763509461092 0.0
    vertex -41.8529523872437 -28.861514565722672 0.0
  endloop
endfacet
facet normal -0.3826834323650902 0.9238795325112866 0.0
  outer loop
    vertex -41.25 -28.611763509461092 0.0
    vertex -41.8529523872437 -28.861514565722672 0.9999999999999999
    vertex -41.25 -28.611763509461092 0.9999999999999999
  endloop
endfacet
facet normal 0.7933533402912359 -0.6087614290087195 0.0
  outer loop
    vertex -44.26776695296637 -24.678933047033627 0.0
    vertex -44.6650635094611 -25.196699999999996 0.9999999999999999
    vertex -44.6650635094611 -25.196699999999996 0.0
  endloop
endfacet
facet normal 0.7933533402912359 -0.6087614290087195 0.0
  outer loop
    vertex -44.6650635094611 -25.196699999999996 0.9999999999999999
    vertex -44.26776695296637 -24.678933047033627 0.0
    vertex -44.26776695296637 -24.678933047033627 0.9999999999999999
  endloop
endfacet
facet normal -0.3826834323650872 -0.9238795325112878 -0.0
  outer loop
    vertex -41.25 -24.2816364905389 0.9999999999999999
    vertex -41.8529523872437 -24.031885434277328 0.0
    vertex -41.25 -24.2816364905389 0.0
  endloop
endfacet
facet normal -0.3826834323650872 -0.9238795325112878 -0.0
  outer loop
    vertex -41.8529523872437 -24.031885434277328 0.0
    vertex -41.25 -24.2816364905389 0.9999999999999999
    vertex -41.8529523872437 -24.031885434277328 0.9999999999999999
  endloop
endfacet
facet normal 4.699944137579824e-16 -1.0 2.6921547529947174e-32
  outer loop
    vertex 50.00000000000001 -33.9467 0.9999999999999999
    vertex 37.99999999999999 -33.94670000000001 1.762479051592436e-15
    vertex 50.00000000000001 -33.9467 0.0
  endloop
endfacet
facet normal 4.699944137579824e-16 -1.0 2.6921547529947174e-32
  outer loop
    vertex 37.99999999999999 -33.94670000000001 1.762479051592436e-15
    vertex 50.00000000000001 -33.9467 0.9999999999999999
    vertex 37.99999999999999 -33.94670000000001 0.9999999999999999
  endloop
endfacet
facet normal -0.7933533402912359 0.6087614290087195 0.0
  outer loop
    vertex -40.33493649053891 -27.696699999999996 0.9999999999999999
    vertex -40.73223304703363 -28.214466952966372 0.0
    vertex -40.73223304703363 -28.214466952966372 0.9999999999999999
  endloop
endfacet
facet normal -0.7933533402912359 0.6087614290087195 0.0
  outer loop
    vertex -40.73223304703363 -28.214466952966372 0.0
    vertex -40.33493649053891 -27.696699999999996 0.9999999999999999
    vertex -40.33493649053891 -27.696699999999996 0.0
  endloop
endfacet
facet normal -0.9914448613738109 -0.13052619222004763 -0.0
  outer loop
    vertex -40.08518543427733 -25.799652387243697 0.9999999999999999
    vertex -40.0 -26.4467 0.0
    vertex -40.0 -26.4467 0.9999999999999999
  endloop
endfacet
facet normal -0.9914448613738109 -0.13052619222004763 -0.0
  outer loop
    vertex -40.0 -26.4467 0.0
    vertex -40.08518543427733 -25.799652387243697 0.9999999999999999
    vertex -40.08518543427733 -25.799652387243697 0.0
  endloop
endfacet
facet normal -0.13052619222005188 -0.9914448613738104 -0.0
  outer loop
    vertex -41.8529523872437 -24.031885434277328 0.9999999999999999
    vertex -42.5 -23.946699999999996 0.0
    vertex -41.8529523872437 -24.031885434277328 0.0
  endloop
endfacet
facet normal -0.13052619222005188 -0.9914448613738104 -0.0
  outer loop
    vertex -42.5 -23.946699999999996 0.0
    vertex -41.8529523872437 -24.031885434277328 0.9999999999999999
    vertex -42.5 -23.946699999999996 0.9999999999999999
  endloop
endfacet
facet normal -0.7933533402912359 0.6087614290087195 0.0
  outer loop
    vertex 44.66506350946109 -27.696699999999996 0.9999999999999999
    vertex 44.26776695296637 -28.214466952966372 0.0
    vertex 44.26776695296637 -28.214466952966372 0.9999999999999999
  endloop
endfacet
facet normal -0.7933533402912359 0.6087614290087195 0.0
  outer loop
    vertex 44.26776695296637 -28.214466952966372 0.0
    vertex 44.66506350946109 -27.696699999999996 0.9999999999999999
    vertex 44.66506350946109 -27.696699999999996 0.0
  endloop
endfacet
facet normal -0.6087614290087195 0.7933533402912359 0.0
  outer loop
    vertex 43.74999999999999 -28.611763509461092 0.9999999999999999
    vertex 44.26776695296637 -28.214466952966372 0.0
    vertex 43.74999999999999 -28.611763509461092 0.0
  endloop
endfacet
facet normal -0.6087614290087195 0.7933533402912359 0.0
  outer loop
    vertex 44.26776695296637 -28.214466952966372 0.0
    vertex 43.74999999999999 -28.611763509461092 0.9999999999999999
    vertex 44.26776695296637 -28.214466952966372 0.9999999999999999
  endloop
endfacet
facet normal 0.13052619222005188 -0.9914448613738104 0.0
  outer loop
    vertex 42.50000000000001 -23.946699999999996 0.9999999999999999
    vertex 41.8529523872437 -24.031885434277328 0.0
    vertex 42.50000000000001 -23.946699999999996 0.0
  endloop
endfacet
facet normal 0.13052619222005188 -0.9914448613738104 0.0
  outer loop
    vertex 41.8529523872437 -24.031885434277328 0.0
    vertex 42.50000000000001 -23.946699999999996 0.9999999999999999
    vertex 41.8529523872437 -24.031885434277328 0.9999999999999999
  endloop
endfacet
facet normal 0.13052619222005188 0.9914448613738104 0.0
  outer loop
    vertex -43.1470476127563 -28.861514565722672 0.9999999999999999
    vertex -42.5 -28.9467 0.0
    vertex -43.1470476127563 -28.861514565722672 0.0
  endloop
endfacet
facet normal 0.13052619222005188 0.9914448613738104 0.0
  outer loop
    vertex -42.5 -28.9467 0.0
    vertex -43.1470476127563 -28.861514565722672 0.9999999999999999
    vertex -42.5 -28.9467 0.9999999999999999
  endloop
endfacet
facet normal -0.13052619222005188 -0.9914448613738104 -0.0
  outer loop
    vertex 43.147047612756296 -24.031885434277328 0.9999999999999999
    vertex 42.50000000000001 -23.946699999999996 0.0
    vertex 43.147047612756296 -24.031885434277328 0.0
  endloop
endfacet
facet normal -0.13052619222005188 -0.9914448613738104 -0.0
  outer loop
    vertex 42.50000000000001 -23.946699999999996 0.0
    vertex 43.147047612756296 -24.031885434277328 0.9999999999999999
    vertex 42.50000000000001 -23.946699999999996 0.9999999999999999
  endloop
endfacet
facet normal 0.7933533402912386 0.6087614290087163 0.0
  outer loop
    vertex 40.3349364905389 -27.696699999999996 0.0
    vertex 40.73223304703363 -28.214466952966365 0.9999999999999999
    vertex 40.73223304703363 -28.214466952966365 0.0
  endloop
endfacet
facet normal 0.7933533402912386 0.6087614290087163 0.0
  outer loop
    vertex 40.73223304703363 -28.214466952966365 0.9999999999999999
    vertex 40.3349364905389 -27.696699999999996 0.0
    vertex 40.3349364905389 -27.696699999999996 0.9999999999999999
  endloop
endfacet
facet normal -0.9238795325112866 0.3826834323650902 0.0
  outer loop
    vertex 44.91481456572267 -27.0937476127563 0.9999999999999999
    vertex 44.66506350946109 -27.696699999999996 0.0
    vertex 44.66506350946109 -27.696699999999996 0.9999999999999999
  endloop
endfacet
facet normal -0.9238795325112866 0.3826834323650902 0.0
  outer loop
    vertex 44.66506350946109 -27.696699999999996 0.0
    vertex 44.91481456572267 -27.0937476127563 0.9999999999999999
    vertex 44.91481456572267 -27.0937476127563 0.0
  endloop
endfacet
facet normal 0.9914448613738109 -0.13052619222004705 0.0
  outer loop
    vertex 40.08518543427732 -25.799652387243697 0.0
    vertex 40.0 -26.4467 0.9999999999999999
    vertex 40.0 -26.4467 0.0
  endloop
endfacet
facet normal 0.9914448613738109 -0.13052619222004705 0.0
  outer loop
    vertex 40.0 -26.4467 0.9999999999999999
    vertex 40.08518543427732 -25.799652387243697 0.0
    vertex 40.08518543427732 -25.799652387243697 0.9999999999999999
  endloop
endfacet
facet normal -0.7933533402912359 -0.6087614290087195 -0.0
  outer loop
    vertex 44.26776695296637 -24.678933047033627 0.9999999999999999
    vertex 44.66506350946109 -25.196699999999996 0.0
    vertex 44.66506350946109 -25.196699999999996 0.9999999999999999
  endloop
endfacet
facet normal -0.7933533402912359 -0.6087614290087195 -0.0
  outer loop
    vertex 44.66506350946109 -25.196699999999996 0.0
    vertex 44.26776695296637 -24.678933047033627 0.9999999999999999
    vertex 44.26776695296637 -24.678933047033627 0.0
  endloop
endfacet
facet normal -0.0 -0.0 1.0
  outer loop
    vertex -50.00000000000001 -33.9467 0.9999999999999999
    vertex -44.6650635094611 -27.696699999999996 0.9999999999999999
    vertex -50.00000000000001 -18.9467 0.9999999999999999
  endloop
endfacet
facet normal -0.0 -0.0 1.0
  outer loop
    vertex -44.6650635094611 -27.696699999999996 0.9999999999999999
    vertex -50.00000000000001 -33.9467 0.9999999999999999
    vertex -44.26776695296637 -28.214466952966372 0.9999999999999999
  endloop
endfacet
facet normal -0.0 -0.0 1.0
  outer loop
    vertex -44.26776695296637 -28.214466952966372 0.9999999999999999
    vertex -50.00000000000001 -33.9467 0.9999999999999999
    vertex -38.00000000000001 -33.94669999999999 0.9999999999999999
  endloop
endfacet
facet normal -0.0 -0.0 1.0
  outer loop
    vertex -50.00000000000001 -18.9467 0.9999999999999999
    vertex -44.6650635094611 -27.696699999999996 0.9999999999999999
    vertex -44.91481456572267 -27.0937476127563 0.9999999999999999
  endloop
endfacet
facet normal -0.0 -0.0 1.0
  outer loop
    vertex -50.00000000000001 -18.9467 0.9999999999999999
    vertex -44.91481456572267 -27.0937476127563 0.9999999999999999
    vertex -45.0 -26.4467 0.9999999999999999
  endloop
endfacet
facet normal -0.0 -0.0 1.0
  outer loop
    vertex -44.26776695296637 -28.214466952966372 0.9999999999999999
    vertex -38.00000000000001 -33.94669999999999 0.9999999999999999
    vertex -43.75000000000001 -28.611763509461092 0.9999999999999999
  endloop
endfacet
facet normal -0.0 -0.0 1.0
  outer loop
    vertex -43.75000000000001 -28.611763509461092 0.9999999999999999
    vertex -38.00000000000001 -33.94669999999999 0.9999999999999999
    vertex -43.1470476127563 -28.861514565722672 0.9999999999999999
  endloop
endfacet
facet normal -0.0 -0.0 1.0
  outer loop
    vertex -43.1470476127563 -28.861514565722672 0.9999999999999999
    vertex -38.00000000000001 -33.94669999999999 0.9999999999999999
    vertex -42.5 -28.9467 0.9999999999999999
  endloop
endfacet
facet normal -0.0 -0.0 1.0
  outer loop
    vertex -42.5 -28.9467 0.9999999999999999
    vertex -38.00000000000001 -33.94669999999999 0.9999999999999999
    vertex -41.8529523872437 -28.861514565722672 0.9999999999999999
  endloop
endfacet
facet normal -0.0 -0.0 1.0
  outer loop
    vertex -41.8529523872437 -28.861514565722672 0.9999999999999999
    vertex -38.00000000000001 -33.94669999999999 0.9999999999999999
    vertex -41.25 -28.611763509461092 0.9999999999999999
  endloop
endfacet
facet normal -0.0 -0.0 1.0
  outer loop
    vertex -41.25 -28.611763509461092 0.9999999999999999
    vertex -38.00000000000001 -33.94669999999999 0.9999999999999999
    vertex -40.73223304703363 -28.214466952966372 0.9999999999999999
  endloop
endfacet
facet normal -0.0 -0.0 1.0
  outer loop
    vertex -40.73223304703363 -28.214466952966372 0.9999999999999999
    vertex -38.00000000000001 -33.94669999999999 0.9999999999999999
    vertex -40.33493649053891 -27.696699999999996 0.9999999999999999
  endloop
endfacet
facet normal -0.0 -0.0 1.0
  outer loop
    vertex -40.33493649053891 -27.696699999999996 0.9999999999999999
    vertex -38.00000000000001 -33.94669999999999 0.9999999999999999
    vertex -40.08518543427733 -27.0937476127563 0.9999999999999999
  endloop
endfacet
facet normal -0.0 -0.0 1.0
  outer loop
    vertex -40.08518543427733 -27.0937476127563 0.9999999999999999
    vertex -38.00000000000001 -33.94669999999999 0.9999999999999999
    vertex -40.0 -26.4467 0.9999999999999999
  endloop
endfacet
facet normal -0.0 -0.0 1.0
  outer loop
    vertex -50.00000000000001 -18.9467 0.9999999999999999
    vertex -44.26776695296637 -24.678933047033627 0.9999999999999999
    vertex -38.00000000000001 -18.946699999999996 0.9999999999999999
  endloop
endfacet
facet normal -0.0 -0.0 1.0
  outer loop
    vertex -44.26776695296637 -24.678933047033627 0.9999999999999999
    vertex -50.00000000000001 -18.9467 0.9999999999999999
    vertex -44.6650635094611 -25.196699999999996 0.9999999999999999
  endloop
endfacet
facet normal -0.0 -0.0 1.0
  outer loop
    vertex -44.6650635094611 -25.196699999999996 0.9999999999999999
    vertex -50.00000000000001 -18.9467 0.9999999999999999
    vertex -44.91481456572267 -25.799652387243697 0.9999999999999999
  endloop
endfacet
facet normal -0.0 -0.0 1.0
  outer loop
    vertex -44.91481456572267 -25.799652387243697 0.9999999999999999
    vertex -50.00000000000001 -18.9467 0.9999999999999999
    vertex -45.0 -26.4467 0.9999999999999999
  endloop
endfacet
facet normal -0.0 -0.0 1.0
  outer loop
    vertex -38.00000000000001 -18.946699999999996 0.9999999999999999
    vertex -44.26776695296637 -24.678933047033627 0.9999999999999999
    vertex -43.75 -24.2816364905389 0.9999999999999999
  endloop
endfacet
facet normal -0.0 -0.0 1.0
  outer loop
    vertex -38.00000000000001 -18.946699999999996 0.9999999999999999
    vertex -43.75 -24.2816364905389 0.9999999999999999
    vertex -43.1470476127563 -24.031885434277328 0.9999999999999999
  endloop
endfacet
facet normal -0.0 -0.0 1.0
  outer loop
    vertex -38.00000000000001 -18.946699999999996 0.9999999999999999
    vertex -43.1470476127563 -24.031885434277328 0.9999999999999999
    vertex -42.5 -23.946699999999996 0.9999999999999999
  endloop
endfacet
facet normal -0.0 -0.0 1.0
  outer loop
    vertex -38.00000000000001 -18.946699999999996 0.9999999999999999
    vertex -42.5 -23.946699999999996 0.9999999999999999
    vertex -41.8529523872437 -24.031885434277328 0.9999999999999999
  endloop
endfacet
facet normal -0.0 -0.0 1.0
  outer loop
    vertex -38.00000000000001 -18.946699999999996 0.9999999999999999
    vertex -41.8529523872437 -24.031885434277328 0.9999999999999999
    vertex -41.25 -24.2816364905389 0.9999999999999999
  endloop
endfacet
facet normal -0.0 -0.0 1.0
  outer loop
    vertex -38.00000000000001 -18.946699999999996 0.9999999999999999
    vertex -41.25 -24.2816364905389 0.9999999999999999
    vertex -40.73223304703363 -24.67893304703363 0.9999999999999999
  endloop
endfacet
facet normal -0.0 -0.0 1.0
  outer loop
    vertex -38.00000000000001 -18.946699999999996 0.9999999999999999
    vertex -40.73223304703363 -24.67893304703363 0.9999999999999999
    vertex -40.33493649053891 -25.196699999999996 0.9999999999999999
  endloop
endfacet
facet normal -0.0 -0.0 1.0
  outer loop
    vertex -38.00000000000001 -18.946699999999996 0.9999999999999999
    vertex -40.33493649053891 -25.196699999999996 0.9999999999999999
    vertex -40.08518543427733 -25.799652387243697 0.9999999999999999
  endloop
endfacet
facet normal -0.0 -0.0 1.0
  outer loop
    vertex -38.00000000000001 -18.946699999999996 0.9999999999999999
    vertex -40.08518543427733 -25.799652387243697 0.9999999999999999
    vertex -40.0 -26.4467 0.9999999999999999
  endloop
endfacet
facet normal -0.0 -0.0 1.0
  outer loop
    vertex -38.00000000000001 -18.946699999999996 0.9999999999999999
    vertex -40.0 -26.4467 0.9999999999999999
    vertex -38.00000000000001 -33.94669999999999 0.9999999999999999
  endloop
endfacet
facet normal 0.9238795325112836 -0.3826834323650976 0.0
  outer loop
    vertex 40.3349364905389 -25.196699999999996 0.0
    vertex 40.08518543427732 -25.799652387243697 0.9999999999999999
    vertex 40.08518543427732 -25.799652387243697 0.0
  endloop
endfacet
facet normal 0.9238795325112836 -0.3826834323650976 0.0
  outer loop
    vertex 40.08518543427732 -25.799652387243697 0.9999999999999999
    vertex 40.3349364905389 -25.196699999999996 0.0
    vertex 40.3349364905389 -25.196699999999996 0.9999999999999999
  endloop
endfacet
facet normal 0.13052619222005188 0.9914448613738104 0.0
  outer loop
    vertex 41.8529523872437 -28.861514565722672 0.9999999999999999
    vertex 42.50000000000001 -28.9467 0.0
    vertex 41.8529523872437 -28.861514565722672 0.0
  endloop
endfacet
facet normal 0.13052619222005188 0.9914448613738104 0.0
  outer loop
    vertex 42.50000000000001 -28.9467 0.0
    vertex 41.8529523872437 -28.861514565722672 0.9999999999999999
    vertex 42.50000000000001 -28.9467 0.9999999999999999
  endloop
endfacet
facet normal -0.9914448613738109 -0.13052619222004763 -0.0
  outer loop
    vertex 44.91481456572267 -25.799652387243697 0.9999999999999999
    vertex 45.0 -26.4467 0.0
    vertex 45.0 -26.4467 0.9999999999999999
  endloop
endfacet
facet normal -0.9914448613738109 -0.13052619222004763 -0.0
  outer loop
    vertex 45.0 -26.4467 0.0
    vertex 44.91481456572267 -25.799652387243697 0.9999999999999999
    vertex 44.91481456572267 -25.799652387243697 0.0
  endloop
endfacet
facet normal 0.0 -2.349972068789912e-16 -1.0
  outer loop
    vertex 35.99999999999999 -41.4467 4.000000000000001
    vertex -36.0 -47.44670000000001 4.000000000000003
    vertex -36.0 -41.4467 4.000000000000001
  endloop
endfacet
facet normal 0.0 -2.349972068789912e-16 -1.0
  outer loop
    vertex -36.0 -47.44670000000001 4.000000000000003
    vertex 35.99999999999999 -41.4467 4.000000000000001
    vertex 35.99999999999999 -47.44670000000001 4.000000000000003
  endloop
endfacet
facet normal 0.0 1.0 -2.349972068789912e-16
  outer loop
    vertex -36.0 -41.4467 5.000000000000001
    vertex 35.99999999999999 -41.4467 4.000000000000001
    vertex -36.0 -41.4467 4.000000000000001
  endloop
endfacet
facet normal 0.0 1.0 -2.349972068789912e-16
  outer loop
    vertex 35.99999999999999 -41.4467 4.000000000000001
    vertex -36.0 -41.4467 5.000000000000001
    vertex 35.99999999999999 -41.4467 5.000000000000001
  endloop
endfacet
facet normal -0.0 1.0 2.3499720687899157e-16
  outer loop
    vertex -36.0 -11.446699999999998 5.000000000000001
    vertex 35.99999999999999 -11.446699999999998 4.000000000000001
    vertex -36.0 -11.446699999999998 4.000000000000001
  endloop
endfacet
facet normal -0.0 1.0 2.3499720687899157e-16
  outer loop
    vertex 35.99999999999999 -11.446699999999998 4.000000000000001
    vertex -36.0 -11.446699999999998 5.000000000000001
    vertex 35.99999999999999 -11.446699999999998 5.000000000000001
  endloop
endfacet
facet normal -0.0 -2.3499720687899157e-16 1.0
  outer loop
    vertex 35.99999999999999 -11.446699999999998 4.000000000000001
    vertex -36.0 -5.4467 4.000000000000003
    vertex -36.0 -11.446699999999998 4.000000000000001
  endloop
endfacet
facet normal -0.0 -2.3499720687899157e-16 1.0
  outer loop
    vertex -36.0 -5.4467 4.000000000000003
    vertex 35.99999999999999 -11.446699999999998 4.000000000000001
    vertex 35.99999999999999 -5.4467 4.000000000000003
  endloop
endfacet
facet normal -5.4675479602452584e-18 1.1356715887323857e-16 -1.0
  outer loop
    vertex -38.00000000000001 -3.4467000000000003 7.402412016688231e-15
    vertex -36.0 -5.4467 7.402412016688231e-15
    vertex -38.00000000000001 -18.946699999999996 7.402412016688231e-15
  endloop
endfacet
facet normal -5.4675479602452584e-18 1.1356715887323857e-16 -1.0
  outer loop
    vertex -36.0 -5.4467 7.402412016688231e-15
    vertex -38.00000000000001 -3.4467000000000003 7.402412016688231e-15
    vertex 37.99999999999999 -3.4467000000000003 7.402412016688231e-15
  endloop
endfacet
facet normal -5.4675479602452584e-18 1.1356715887323857e-16 -1.0
  outer loop
    vertex -38.00000000000001 -18.946699999999996 7.402412016688231e-15
    vertex -36.0 -5.4467 7.402412016688231e-15
    vertex -38.00000000000001 -33.94669999999999 1.762479051592436e-15
  endloop
endfacet
facet normal -5.4675479602452584e-18 1.1356715887323857e-16 -1.0
  outer loop
    vertex -38.00000000000001 -33.94669999999999 1.762479051592436e-15
    vertex -36.0 -5.4467 7.402412016688231e-15
    vertex -38.00000000000001 -49.44670000000001 1.762479051592436e-15
  endloop
endfacet
facet normal -5.4675479602452584e-18 1.1356715887323857e-16 -1.0
  outer loop
    vertex -36.0 -5.4467 7.402412016688231e-15
    vertex 37.99999999999999 -3.4467000000000003 7.402412016688231e-15
    vertex 35.99999999999999 -5.4467 7.402412016688231e-15
  endloop
endfacet
facet normal -5.4675479602452584e-18 1.1356715887323857e-16 -1.0
  outer loop
    vertex 35.99999999999999 -5.4467 7.402412016688231e-15
    vertex 37.99999999999999 -3.4467000000000003 7.402412016688231e-15
    vertex 35.99999999999999 -47.44670000000001 1.762479051592436e-15
  endloop
endfacet
facet normal -5.4675479602452584e-18 1.1356715887323857e-16 -1.0
  outer loop
    vertex -38.00000000000001 -49.44670000000001 1.762479051592436e-15
    vertex -36.0 -47.44670000000001 1.762479051592436e-15
    vertex 37.99999999999999 -49.44670000000001 1.762479051592436e-15
  endloop
endfacet
facet normal -5.4675479602452584e-18 1.1356715887323857e-16 -1.0
  outer loop
    vertex -36.0 -47.44670000000001 1.762479051592436e-15
    vertex -38.00000000000001 -49.44670000000001 1.762479051592436e-15
    vertex -36.0 -5.4467 7.402412016688231e-15
  endloop
endfacet
facet normal -5.4675479602452584e-18 1.1356715887323857e-16 -1.0
  outer loop
    vertex 37.99999999999999 -49.44670000000001 1.762479051592436e-15
    vertex -36.0 -47.44670000000001 1.762479051592436e-15
    vertex 35.99999999999999 -47.44670000000001 1.762479051592436e-15
  endloop
endfacet
facet normal -5.4675479602452584e-18 1.1356715887323857e-16 -1.0
  outer loop
    vertex 37.99999999999999 -49.44670000000001 1.762479051592436e-15
    vertex 35.99999999999999 -47.44670000000001 1.762479051592436e-15
    vertex 37.99999999999999 -3.4467000000000003 7.402412016688231e-15
  endloop
endfacet
facet normal -5.4675479602452584e-18 1.1356715887323857e-16 -1.0
  outer loop
    vertex 37.99999999999999 -49.44670000000001 1.762479051592436e-15
    vertex 37.99999999999999 -3.4467000000000003 7.402412016688231e-15
    vertex 37.99999999999999 -18.9467 7.402412016688231e-15
  endloop
endfacet
facet normal -5.4675479602452584e-18 1.1356715887323857e-16 -1.0
  outer loop
    vertex 37.99999999999999 -49.44670000000001 1.762479051592436e-15
    vertex 37.99999999999999 -18.9467 7.402412016688231e-15
    vertex 37.99999999999999 -33.94670000000001 1.762479051592436e-15
  endloop
endfacet
facet normal -5.4675479602452584e-18 1.1356715887323857e-16 -1.0
  outer loop
    vertex 37.99999999999999 -18.9467 7.402412016688231e-15
    vertex 40.08518543427732 -25.799652387243697 0.0
    vertex 37.99999999999999 -33.94670000000001 1.762479051592436e-15
  endloop
endfacet
facet normal -5.4675479602452584e-18 1.1356715887323857e-16 -1.0
  outer loop
    vertex 40.08518543427732 -25.799652387243697 0.0
    vertex 37.99999999999999 -18.9467 7.402412016688231e-15
    vertex 40.3349364905389 -25.196699999999996 0.0
  endloop
endfacet
facet normal -5.4675479602452584e-18 1.1356715887323857e-16 -1.0
  outer loop
    vertex 40.3349364905389 -25.196699999999996 0.0
    vertex 37.99999999999999 -18.9467 7.402412016688231e-15
    vertex 40.73223304703363 -24.678933047033627 0.0
  endloop
endfacet
facet normal -5.4675479602452584e-18 1.1356715887323857e-16 -1.0
  outer loop
    vertex 40.73223304703363 -24.678933047033627 0.0
    vertex 37.99999999999999 -18.9467 7.402412016688231e-15
    vertex 41.25 -24.2816364905389 0.0
  endloop
endfacet
facet normal -5.4675479602452584e-18 1.1356715887323857e-16 -1.0
  outer loop
    vertex 41.25 -24.2816364905389 0.0
    vertex 37.99999999999999 -18.9467 7.402412016688231e-15
    vertex 50.00000000000001 -18.9467 0.0
  endloop
endfacet
facet normal -5.4675479602452584e-18 1.1356715887323857e-16 -1.0
  outer loop
    vertex 37.99999999999999 -33.94670000000001 1.762479051592436e-15
    vertex 40.08518543427732 -25.799652387243697 0.0
    vertex 40.0 -26.4467 0.0
  endloop
endfacet
facet normal -5.4675479602452584e-18 1.1356715887323857e-16 -1.0
  outer loop
    vertex 41.25 -24.2816364905389 0.0
    vertex 50.00000000000001 -18.9467 0.0
    vertex 41.8529523872437 -24.031885434277328 0.0
  endloop
endfacet
facet normal -5.4675479602452584e-18 1.1356715887323857e-16 -1.0
  outer loop
    vertex 41.8529523872437 -24.031885434277328 0.0
    vertex 50.00000000000001 -18.9467 0.0
    vertex 42.50000000000001 -23.946699999999996 0.0
  endloop
endfacet
facet normal -5.4675479602452584e-18 1.1356715887323857e-16 -1.0
  outer loop
    vertex 42.50000000000001 -23.946699999999996 0.0
    vertex 50.00000000000001 -18.9467 0.0
    vertex 43.147047612756296 -24.031885434277328 0.0
  endloop
endfacet
facet normal -5.4675479602452584e-18 1.1356715887323857e-16 -1.0
  outer loop
    vertex 43.147047612756296 -24.031885434277328 0.0
    vertex 50.00000000000001 -18.9467 0.0
    vertex 43.75000000000001 -24.2816364905389 0.0
  endloop
endfacet
facet normal -5.4675479602452584e-18 1.1356715887323857e-16 -1.0
  outer loop
    vertex 43.75000000000001 -24.2816364905389 0.0
    vertex 50.00000000000001 -18.9467 0.0
    vertex 44.26776695296637 -24.678933047033627 0.0
  endloop
endfacet
facet normal -5.4675479602452584e-18 1.1356715887323857e-16 -1.0
  outer loop
    vertex 44.26776695296637 -24.678933047033627 0.0
    vertex 50.00000000000001 -18.9467 0.0
    vertex 44.66506350946109 -25.196699999999996 0.0
  endloop
endfacet
facet normal -5.4675479602452584e-18 1.1356715887323857e-16 -1.0
  outer loop
    vertex 44.66506350946109 -25.196699999999996 0.0
    vertex 50.00000000000001 -18.9467 0.0
    vertex 44.91481456572267 -25.799652387243697 0.0
  endloop
endfacet
facet normal -5.4675479602452584e-18 1.1356715887323857e-16 -1.0
  outer loop
    vertex 44.91481456572267 -25.799652387243697 0.0
    vertex 50.00000000000001 -18.9467 0.0
    vertex 45.0 -26.4467 0.0
  endloop
endfacet
facet normal -5.4675479602452584e-18 1.1356715887323857e-16 -1.0
  outer loop
    vertex 37.99999999999999 -33.94670000000001 1.762479051592436e-15
    vertex 41.25 -28.611763509461092 0.0
    vertex 50.00000000000001 -33.9467 0.0
  endloop
endfacet
facet normal -5.4675479602452584e-18 1.1356715887323857e-16 -1.0
  outer loop
    vertex 41.25 -28.611763509461092 0.0
    vertex 37.99999999999999 -33.94670000000001 1.762479051592436e-15
    vertex 40.73223304703363 -28.214466952966365 0.0
  endloop
endfacet
facet normal -5.4675479602452584e-18 1.1356715887323857e-16 -1.0
  outer loop
    vertex 40.73223304703363 -28.214466952966365 0.0
    vertex 37.99999999999999 -33.94670000000001 1.762479051592436e-15
    vertex 40.3349364905389 -27.696699999999996 0.0
  endloop
endfacet
facet normal -5.4675479602452584e-18 1.1356715887323857e-16 -1.0
  outer loop
    vertex 40.3349364905389 -27.696699999999996 0.0
    vertex 37.99999999999999 -33.94670000000001 1.762479051592436e-15
    vertex 40.08518543427732 -27.0937476127563 0.0
  endloop
endfacet
facet normal -5.4675479602452584e-18 1.1356715887323857e-16 -1.0
  outer loop
    vertex 40.08518543427732 -27.0937476127563 0.0
    vertex 37.99999999999999 -33.94670000000001 1.762479051592436e-15
    vertex 40.0 -26.4467 0.0
  endloop
endfacet
facet normal -5.4675479602452584e-18 1.1356715887323857e-16 -1.0
  outer loop
    vertex 50.00000000000001 -33.9467 0.0
    vertex 41.25 -28.611763509461092 0.0
    vertex 41.8529523872437 -28.861514565722672 0.0
  endloop
endfacet
facet normal -5.4675479602452584e-18 1.1356715887323857e-16 -1.0
  outer loop
    vertex 50.00000000000001 -33.9467 0.0
    vertex 41.8529523872437 -28.861514565722672 0.0
    vertex 42.50000000000001 -28.9467 0.0
  endloop
endfacet
facet normal -5.4675479602452584e-18 1.1356715887323857e-16 -1.0
  outer loop
    vertex 50.00000000000001 -33.9467 0.0
    vertex 42.50000000000001 -28.9467 0.0
    vertex 43.147047612756296 -28.861514565722672 0.0
  endloop
endfacet
facet normal -5.4675479602452584e-18 1.1356715887323857e-16 -1.0
  outer loop
    vertex 50.00000000000001 -33.9467 0.0
    vertex 43.147047612756296 -28.861514565722672 0.0
    vertex 43.74999999999999 -28.611763509461092 0.0
  endloop
endfacet
facet normal -5.4675479602452584e-18 1.1356715887323857e-16 -1.0
  outer loop
    vertex 50.00000000000001 -33.9467 0.0
    vertex 43.74999999999999 -28.611763509461092 0.0
    vertex 44.26776695296637 -28.214466952966372 0.0
  endloop
endfacet
facet normal -5.4675479602452584e-18 1.1356715887323857e-16 -1.0
  outer loop
    vertex 50.00000000000001 -33.9467 0.0
    vertex 44.26776695296637 -28.214466952966372 0.0
    vertex 44.66506350946109 -27.696699999999996 0.0
  endloop
endfacet
facet normal -5.4675479602452584e-18 1.1356715887323857e-16 -1.0
  outer loop
    vertex 50.00000000000001 -33.9467 0.0
    vertex 44.66506350946109 -27.696699999999996 0.0
    vertex 44.91481456572267 -27.0937476127563 0.0
  endloop
endfacet
facet normal -5.4675479602452584e-18 1.1356715887323857e-16 -1.0
  outer loop
    vertex 50.00000000000001 -33.9467 0.0
    vertex 44.91481456572267 -27.0937476127563 0.0
    vertex 45.0 -26.4467 0.0
  endloop
endfacet
facet normal -5.4675479602452584e-18 1.1356715887323857e-16 -1.0
  outer loop
    vertex 50.00000000000001 -33.9467 0.0
    vertex 45.0 -26.4467 0.0
    vertex 50.00000000000001 -18.9467 0.0
  endloop
endfacet
facet normal -5.4675479602452584e-18 1.1356715887323857e-16 -1.0
  outer loop
    vertex -50.00000000000001 -18.9467 0.0
    vertex -44.6650635094611 -25.196699999999996 0.0
    vertex -50.00000000000001 -33.9467 0.0
  endloop
endfacet
facet normal -5.4675479602452584e-18 1.1356715887323857e-16 -1.0
  outer loop
    vertex -44.6650635094611 -25.196699999999996 0.0
    vertex -50.00000000000001 -18.9467 0.0
    vertex -44.26776695296637 -24.678933047033627 0.0
  endloop
endfacet
facet normal -5.4675479602452584e-18 1.1356715887323857e-16 -1.0
  outer loop
    vertex -44.26776695296637 -24.678933047033627 0.0
    vertex -50.00000000000001 -18.9467 0.0
    vertex -38.00000000000001 -18.946699999999996 7.402412016688231e-15
  endloop
endfacet
facet normal -5.4675479602452584e-18 1.1356715887323857e-16 -1.0
  outer loop
    vertex -50.00000000000001 -33.9467 0.0
    vertex -44.6650635094611 -25.196699999999996 0.0
    vertex -44.91481456572267 -25.799652387243697 0.0
  endloop
endfacet
facet normal -5.4675479602452584e-18 1.1356715887323857e-16 -1.0
  outer loop
    vertex -50.00000000000001 -33.9467 0.0
    vertex -44.91481456572267 -25.799652387243697 0.0
    vertex -45.0 -26.4467 0.0
  endloop
endfacet
facet normal -5.4675479602452584e-18 1.1356715887323857e-16 -1.0
  outer loop
    vertex -44.26776695296637 -24.678933047033627 0.0
    vertex -38.00000000000001 -18.946699999999996 7.402412016688231e-15
    vertex -43.75 -24.2816364905389 0.0
  endloop
endfacet
facet normal -5.4675479602452584e-18 1.1356715887323857e-16 -1.0
  outer loop
    vertex -43.75 -24.2816364905389 0.0
    vertex -38.00000000000001 -18.946699999999996 7.402412016688231e-15
    vertex -43.1470476127563 -24.031885434277328 0.0
  endloop
endfacet
facet normal -5.4675479602452584e-18 1.1356715887323857e-16 -1.0
  outer loop
    vertex -43.1470476127563 -24.031885434277328 0.0
    vertex -38.00000000000001 -18.946699999999996 7.402412016688231e-15
    vertex -42.5 -23.946699999999996 0.0
  endloop
endfacet
facet normal -5.4675479602452584e-18 1.1356715887323857e-16 -1.0
  outer loop
    vertex -42.5 -23.946699999999996 0.0
    vertex -38.00000000000001 -18.946699999999996 7.402412016688231e-15
    vertex -41.8529523872437 -24.031885434277328 0.0
  endloop
endfacet
facet normal -5.4675479602452584e-18 1.1356715887323857e-16 -1.0
  outer loop
    vertex -41.8529523872437 -24.031885434277328 0.0
    vertex -38.00000000000001 -18.946699999999996 7.402412016688231e-15
    vertex -41.25 -24.2816364905389 0.0
  endloop
endfacet
facet normal -5.4675479602452584e-18 1.1356715887323857e-16 -1.0
  outer loop
    vertex -41.25 -24.2816364905389 0.0
    vertex -38.00000000000001 -18.946699999999996 7.402412016688231e-15
    vertex -40.73223304703363 -24.67893304703363 0.0
  endloop
endfacet
facet normal -5.4675479602452584e-18 1.1356715887323857e-16 -1.0
  outer loop
    vertex -40.73223304703363 -24.67893304703363 0.0
    vertex -38.00000000000001 -18.946699999999996 7.402412016688231e-15
    vertex -40.33493649053891 -25.196699999999996 0.0
  endloop
endfacet
facet normal -5.4675479602452584e-18 1.1356715887323857e-16 -1.0
  outer loop
    vertex -40.33493649053891 -25.196699999999996 0.0
    vertex -38.00000000000001 -18.946699999999996 7.402412016688231e-15
    vertex -40.08518543427733 -25.799652387243697 0.0
  endloop
endfacet
facet normal -5.4675479602452584e-18 1.1356715887323857e-16 -1.0
  outer loop
    vertex -40.08518543427733 -25.799652387243697 0.0
    vertex -38.00000000000001 -18.946699999999996 7.402412016688231e-15
    vertex -40.0 -26.4467 0.0
  endloop
endfacet
facet normal -5.4675479602452584e-18 1.1356715887323857e-16 -1.0
  outer loop
    vertex -50.00000000000001 -33.9467 0.0
    vertex -44.26776695296637 -28.214466952966372 0.0
    vertex -38.00000000000001 -33.94669999999999 1.762479051592436e-15
  endloop
endfacet
facet normal -5.4675479602452584e-18 1.1356715887323857e-16 -1.0
  outer loop
    vertex -44.26776695296637 -28.214466952966372 0.0
    vertex -50.00000000000001 -33.9467 0.0
    vertex -44.6650635094611 -27.696699999999996 0.0
  endloop
endfacet
facet normal -5.4675479602452584e-18 1.1356715887323857e-16 -1.0
  outer loop
    vertex -44.6650635094611 -27.696699999999996 0.0
    vertex -50.00000000000001 -33.9467 0.0
    vertex -44.91481456572267 -27.0937476127563 0.0
  endloop
endfacet
facet normal -5.4675479602452584e-18 1.1356715887323857e-16 -1.0
  outer loop
    vertex -44.91481456572267 -27.0937476127563 0.0
    vertex -50.00000000000001 -33.9467 0.0
    vertex -45.0 -26.4467 0.0
  endloop
endfacet
facet normal -5.4675479602452584e-18 1.1356715887323857e-16 -1.0
  outer loop
    vertex -38.00000000000001 -33.94669999999999 1.762479051592436e-15
    vertex -44.26776695296637 -28.214466952966372 0.0
    vertex -43.75000000000001 -28.611763509461092 0.0
  endloop
endfacet
facet normal -5.4675479602452584e-18 1.1356715887323857e-16 -1.0
  outer loop
    vertex -38.00000000000001 -33.94669999999999 1.762479051592436e-15
    vertex -43.75000000000001 -28.611763509461092 0.0
    vertex -43.1470476127563 -28.861514565722672 0.0
  endloop
endfacet
facet normal -5.4675479602452584e-18 1.1356715887323857e-16 -1.0
  outer loop
    vertex -38.00000000000001 -33.94669999999999 1.762479051592436e-15
    vertex -43.1470476127563 -28.861514565722672 0.0
    vertex -42.5 -28.9467 0.0
  endloop
endfacet
facet normal -5.4675479602452584e-18 1.1356715887323857e-16 -1.0
  outer loop
    vertex -38.00000000000001 -33.94669999999999 1.762479051592436e-15
    vertex -42.5 -28.9467 0.0
    vertex -41.8529523872437 -28.861514565722672 0.0
  endloop
endfacet
facet normal -5.4675479602452584e-18 1.1356715887323857e-16 -1.0
  outer loop
    vertex -38.00000000000001 -33.94669999999999 1.762479051592436e-15
    vertex -41.8529523872437 -28.861514565722672 0.0
    vertex -41.25 -28.611763509461092 0.0
  endloop
endfacet
facet normal -5.4675479602452584e-18 1.1356715887323857e-16 -1.0
  outer loop
    vertex -38.00000000000001 -33.94669999999999 1.762479051592436e-15
    vertex -41.25 -28.611763509461092 0.0
    vertex -40.73223304703363 -28.214466952966372 0.0
  endloop
endfacet
facet normal -5.4675479602452584e-18 1.1356715887323857e-16 -1.0
  outer loop
    vertex -38.00000000000001 -33.94669999999999 1.762479051592436e-15
    vertex -40.73223304703363 -28.214466952966372 0.0
    vertex -40.33493649053891 -27.696699999999996 0.0
  endloop
endfacet
facet normal -5.4675479602452584e-18 1.1356715887323857e-16 -1.0
  outer loop
    vertex -38.00000000000001 -33.94669999999999 1.762479051592436e-15
    vertex -40.33493649053891 -27.696699999999996 0.0
    vertex -40.08518543427733 -27.0937476127563 0.0
  endloop
endfacet
facet normal -5.4675479602452584e-18 1.1356715887323857e-16 -1.0
  outer loop
    vertex -38.00000000000001 -33.94669999999999 1.762479051592436e-15
    vertex -40.08518543427733 -27.0937476127563 0.0
    vertex -40.0 -26.4467 0.0
  endloop
endfacet
facet normal -5.4675479602452584e-18 1.1356715887323857e-16 -1.0
  outer loop
    vertex -38.00000000000001 -33.94669999999999 1.762479051592436e-15
    vertex -40.0 -26.4467 0.0
    vertex -38.00000000000001 -18.946699999999996 7.402412016688231e-15
  endloop
endfacet
facet normal -1.0 0.0 0.0
  outer loop
    vertex -38.00000000000001 -33.94669999999999 5.000000000000002
    vertex -38.00000000000001 -49.44670000000001 1.762479051592436e-15
    vertex -38.00000000000001 -49.44670000000001 5.000000000000002
  endloop
endfacet
facet normal -1.0 0.0 0.0
  outer loop
    vertex -38.00000000000001 -49.44670000000001 1.762479051592436e-15
    vertex -38.00000000000001 -33.94669999999999 5.000000000000002
    vertex -38.00000000000001 -33.94669999999999 1.762479051592436e-15
  endloop
endfacet
facet normal -1.0 0.0 0.0
  outer loop
    vertex -38.00000000000001 -33.94669999999999 1.762479051592436e-15
    vertex -38.00000000000001 -33.94669999999999 5.000000000000002
    vertex -38.00000000000001 -33.94669999999999 0.9999999999999999
  endloop
endfacet
facet normal 4.699944137579829e-16 -1.0 -2.6921547529952166e-32
  outer loop
    vertex -38.00000000000001 -33.94669999999999 1.762479051592436e-15
    vertex -50.00000000000001 -33.9467 0.9999999999999999
    vertex -50.00000000000001 -33.9467 0.0
  endloop
endfacet
facet normal 4.699944137579829e-16 -1.0 -2.6921547529952166e-32
  outer loop
    vertex -50.00000000000001 -33.9467 0.9999999999999999
    vertex -38.00000000000001 -33.94669999999999 1.762479051592436e-15
    vertex -38.00000000000001 -33.94669999999999 0.9999999999999999
  endloop
endfacet
facet normal 0.0 -1.0 0.0
  outer loop
    vertex 37.99999999999999 -49.44670000000001 5.000000000000002
    vertex -38.00000000000001 -49.44670000000001 1.762479051592436e-15
    vertex 37.99999999999999 -49.44670000000001 1.762479051592436e-15
  endloop
endfacet
facet normal 0.0 -1.0 0.0
  outer loop
    vertex -38.00000000000001 -49.44670000000001 1.762479051592436e-15
    vertex 37.99999999999999 -49.44670000000001 5.000000000000002
    vertex -38.00000000000001 -49.44670000000001 5.000000000000002
  endloop
endfacet
facet normal -0.0 -0.0 1.0
  outer loop
    vertex -38.00000000000001 -49.44670000000001 5.000000000000002
    vertex -36.0 -41.4467 5.000000000000001
    vertex -38.00000000000001 -33.94669999999999 5.000000000000002
  endloop
endfacet
facet normal -0.0 -0.0 1.0
  outer loop
    vertex -36.0 -41.4467 5.000000000000001
    vertex -38.00000000000001 -49.44670000000001 5.000000000000002
    vertex 37.99999999999999 -49.44670000000001 5.000000000000002
  endloop
endfacet
facet normal -0.0 -0.0 1.0
  outer loop
    vertex -38.00000000000001 -33.94669999999999 5.000000000000002
    vertex -36.0 -41.4467 5.000000000000001
    vertex -38.00000000000001 -18.946699999999996 5.000000000000002
  endloop
endfacet
facet normal -0.0 -0.0 1.0
  outer loop
    vertex -38.00000000000001 -18.946699999999996 5.000000000000002
    vertex -36.0 -41.4467 5.000000000000001
    vertex -38.00000000000001 -3.4467000000000003 5.000000000000002
  endloop
endfacet
facet normal -0.0 -0.0 1.0
  outer loop
    vertex -36.0 -41.4467 5.000000000000001
    vertex 37.99999999999999 -49.44670000000001 5.000000000000002
    vertex 35.99999999999999 -41.4467 5.000000000000001
  endloop
endfacet
facet normal -0.0 -0.0 1.0
  outer loop
    vertex 35.99999999999999 -41.4467 5.000000000000001
    vertex 37.99999999999999 -49.44670000000001 5.000000000000002
    vertex 35.99999999999999 -11.446699999999998 5.000000000000001
  endloop
endfacet
facet normal -0.0 -0.0 1.0
  outer loop
    vertex -38.00000000000001 -3.4467000000000003 5.000000000000002
    vertex -36.0 -11.446699999999998 5.000000000000001
    vertex 37.99999999999999 -3.4467000000000003 5.000000000000002
  endloop
endfacet
facet normal -0.0 -0.0 1.0
  outer loop
    vertex -36.0 -11.446699999999998 5.000000000000001
    vertex -38.00000000000001 -3.4467000000000003 5.000000000000002
    vertex -36.0 -41.4467 5.000000000000001
  endloop
endfacet
facet normal -0.0 -0.0 1.0
  outer loop
    vertex 37.99999999999999 -3.4467000000000003 5.000000000000002
    vertex -36.0 -11.446699999999998 5.000000000000001
    vertex 35.99999999999999 -11.446699999999998 5.000000000000001
  endloop
endfacet
facet normal -0.0 -0.0 1.0
  outer loop
    vertex 37.99999999999999 -3.4467000000000003 5.000000000000002
    vertex 35.99999999999999 -11.446699999999998 5.000000000000001
    vertex 37.99999999999999 -49.44670000000001 5.000000000000002
  endloop
endfacet
facet normal -0.0 -0.0 1.0
  outer loop
    vertex 37.99999999999999 -3.4467000000000003 5.000000000000002
    vertex 37.99999999999999 -49.44670000000001 5.000000000000002
    vertex 37.99999999999999 -33.94670000000001 5.000000000000002
  endloop
endfacet
facet normal -0.0 -0.0 1.0
  outer loop
    vertex 37.99999999999999 -3.4467000000000003 5.000000000000002
    vertex 37.99999999999999 -33.94670000000001 5.000000000000002
    vertex 37.99999999999999 -18.9467 5.000000000000002
  endloop
endfacet
facet normal -1.0 -0.0 -0.0
  outer loop
    vertex -38.00000000000001 -18.946699999999996 5.000000000000002
    vertex -38.00000000000001 -33.94669999999999 0.9999999999999999
    vertex -38.00000000000001 -33.94669999999999 5.000000000000002
  endloop
endfacet
facet normal -1.0 -0.0 -0.0
  outer loop
    vertex -38.00000000000001 -33.94669999999999 0.9999999999999999
    vertex -38.00000000000001 -18.946699999999996 5.000000000000002
    vertex -38.00000000000001 -18.946699999999996 0.9999999999999999
  endloop
endfacet
facet normal 1.0 -0.0 -0.0
  outer loop
    vertex -36.0 -5.4467 7.402412016688231e-15
    vertex -36.0 -47.44670000000001 4.000000000000003
    vertex -36.0 -47.44670000000001 1.762479051592436e-15
  endloop
endfacet
facet normal 1.0 -0.0 -0.0
  outer loop
    vertex -36.0 -47.44670000000001 4.000000000000003
    vertex -36.0 -5.4467 7.402412016688231e-15
    vertex -36.0 -41.4467 4.000000000000001
  endloop
endfacet
facet normal 1.0 -0.0 -0.0
  outer loop
    vertex -36.0 -41.4467 4.000000000000001
    vertex -36.0 -5.4467 7.402412016688231e-15
    vertex -36.0 -41.4467 5.000000000000001
  endloop
endfacet
facet normal 1.0 -0.0 -0.0
  outer loop
    vertex -36.0 -41.4467 5.000000000000001
    vertex -36.0 -5.4467 7.402412016688231e-15
    vertex -36.0 -11.446699999999998 4.000000000000001
  endloop
endfacet
facet normal 1.0 -0.0 -0.0
  outer loop
    vertex -36.0 -11.446699999999998 4.000000000000001
    vertex -36.0 -5.4467 7.402412016688231e-15
    vertex -36.0 -5.4467 4.000000000000003
  endloop
endfacet
facet normal 1.0 -0.0 -0.0
  outer loop
    vertex -36.0 -11.446699999999998 5.000000000000001
    vertex -36.0 -41.4467 5.000000000000001
    vertex -36.0 -11.446699999999998 4.000000000000001
  endloop
endfacet
facet normal -1.0 0.0 0.0
  outer loop
    vertex -38.00000000000001 -3.4467000000000003 5.000000000000002
    vertex -38.00000000000001 -18.946699999999996 0.9999999999999999
    vertex -38.00000000000001 -18.946699999999996 5.000000000000002
  endloop
endfacet
facet normal -1.0 0.0 0.0
  outer loop
    vertex -38.00000000000001 -18.946699999999996 0.9999999999999999
    vertex -38.00000000000001 -3.4467000000000003 5.000000000000002
    vertex -38.00000000000001 -18.946699999999996 7.402412016688231e-15
  endloop
endfacet
facet normal -1.0 0.0 0.0
  outer loop
    vertex -38.00000000000001 -18.946699999999996 7.402412016688231e-15
    vertex -38.00000000000001 -3.4467000000000003 5.000000000000002
    vertex -38.00000000000001 -3.4467000000000003 7.402412016688231e-15
  endloop
endfacet
facet normal 0.0 -1.0 0.0
  outer loop
    vertex 35.99999999999999 -5.4467 4.000000000000003
    vertex -36.0 -5.4467 7.402412016688231e-15
    vertex 35.99999999999999 -5.4467 7.402412016688231e-15
  endloop
endfacet
facet normal 0.0 -1.0 0.0
  outer loop
    vertex -36.0 -5.4467 7.402412016688231e-15
    vertex 35.99999999999999 -5.4467 4.000000000000003
    vertex -36.0 -5.4467 4.000000000000003
  endloop
endfacet
facet normal 1.0 -0.0 0.0
  outer loop
    vertex 37.99999999999999 -18.9467 0.9999999999999999
    vertex 37.99999999999999 -33.94670000000001 5.000000000000002
    vertex 37.99999999999999 -33.94670000000001 0.9999999999999999
  endloop
endfacet
facet normal 1.0 -0.0 0.0
  outer loop
    vertex 37.99999999999999 -33.94670000000001 5.000000000000002
    vertex 37.99999999999999 -18.9467 0.9999999999999999
    vertex 37.99999999999999 -18.9467 5.000000000000002
  endloop
endfacet
facet normal 0.0 1.0 0.0
  outer loop
    vertex -38.00000000000001 -3.4467000000000003 5.000000000000002
    vertex 37.99999999999999 -3.4467000000000003 7.402412016688231e-15
    vertex -38.00000000000001 -3.4467000000000003 7.402412016688231e-15
  endloop
endfacet
facet normal 0.0 1.0 0.0
  outer loop
    vertex 37.99999999999999 -3.4467000000000003 7.402412016688231e-15
    vertex -38.00000000000001 -3.4467000000000003 5.000000000000002
    vertex 37.99999999999999 -3.4467000000000003 5.000000000000002
  endloop
endfacet
facet normal 1.0 -0.0 -0.0
  outer loop
    vertex 37.99999999999999 -3.4467000000000003 7.402412016688231e-15
    vertex 37.99999999999999 -18.9467 0.9999999999999999
    vertex 37.99999999999999 -18.9467 7.402412016688231e-15
  endloop
endfacet
facet normal 1.0 -0.0 -0.0
  outer loop
    vertex 37.99999999999999 -18.9467 0.9999999999999999
    vertex 37.99999999999999 -3.4467000000000003 7.402412016688231e-15
    vertex 37.99999999999999 -18.9467 5.000000000000002
  endloop
endfacet
facet normal 1.0 -0.0 -0.0
  outer loop
    vertex 37.99999999999999 -18.9467 5.000000000000002
    vertex 37.99999999999999 -3.4467000000000003 7.402412016688231e-15
    vertex 37.99999999999999 -3.4467000000000003 5.000000000000002
  endloop
endfacet
facet normal 1.0 -0.0 -0.0
  outer loop
    vertex 37.99999999999999 -33.94670000000001 1.762479051592436e-15
    vertex 37.99999999999999 -49.44670000000001 5.000000000000002
    vertex 37.99999999999999 -49.44670000000001 1.762479051592436e-15
  endloop
endfacet
facet normal 1.0 -0.0 -0.0
  outer loop
    vertex 37.99999999999999 -49.44670000000001 5.000000000000002
    vertex 37.99999999999999 -33.94670000000001 1.762479051592436e-15
    vertex 37.99999999999999 -33.94670000000001 5.000000000000002
  endloop
endfacet
facet normal 1.0 -0.0 -0.0
  outer loop
    vertex 37.99999999999999 -33.94670000000001 5.000000000000002
    vertex 37.99999999999999 -33.94670000000001 1.762479051592436e-15
    vertex 37.99999999999999 -33.94670000000001 0.9999999999999999
  endloop
endfacet
facet normal -0.0 1.0 -0.0
  outer loop
    vertex -36.0 -47.44670000000001 4.000000000000003
    vertex 35.99999999999999 -47.44670000000001 1.762479051592436e-15
    vertex -36.0 -47.44670000000001 1.762479051592436e-15
  endloop
endfacet
facet normal -0.0 1.0 -0.0
  outer loop
    vertex 35.99999999999999 -47.44670000000001 1.762479051592436e-15
    vertex -36.0 -47.44670000000001 4.000000000000003
    vertex 35.99999999999999 -47.44670000000001 4.000000000000003
  endloop
endfacet
facet normal -1.0 0.0 0.0
  outer loop
    vertex 35.99999999999999 -11.446699999999998 5.000000000000001
    vertex 35.99999999999999 -41.4467 4.000000000000001
    vertex 35.99999999999999 -41.4467 5.000000000000001
  endloop
endfacet
facet normal -1.0 0.0 0.0
  outer loop
    vertex 35.99999999999999 -41.4467 4.000000000000001
    vertex 35.99999999999999 -47.44670000000001 1.762479051592436e-15
    vertex 35.99999999999999 -47.44670000000001 4.000000000000003
  endloop
endfacet
facet normal -1.0 0.0 0.0
  outer loop
    vertex 35.99999999999999 -47.44670000000001 1.762479051592436e-15
    vertex 35.99999999999999 -41.4467 4.000000000000001
    vertex 35.99999999999999 -5.4467 7.402412016688231e-15
  endloop
endfacet
facet normal -1.0 0.0 0.0
  outer loop
    vertex 35.99999999999999 -5.4467 7.402412016688231e-15
    vertex 35.99999999999999 -41.4467 4.000000000000001
    vertex 35.99999999999999 -11.446699999999998 4.000000000000001
  endloop
endfacet
facet normal -1.0 0.0 0.0
  outer loop
    vertex 35.99999999999999 -11.446699999999998 4.000000000000001
    vertex 35.99999999999999 -41.4467 4.000000000000001
    vertex 35.99999999999999 -11.446699999999998 5.000000000000001
  endloop
endfacet
facet normal -1.0 0.0 0.0
  outer loop
    vertex 35.99999999999999 -5.4467 7.402412016688231e-15
    vertex 35.99999999999999 -11.446699999999998 4.000000000000001
    vertex 35.99999999999999 -5.4467 4.000000000000003
  endloop
endfacet
endsolid ULN2003-dual
